<svg width="275" height="430" viewBox="0 0 275 430" fill="none" xmlns="http://www.w3.org/2000/svg">
<path d="M250.25 428.5L250.25 427H250.25V428.5ZM273.25 405.5L274.75 405.5V405.5H273.25ZM273.25 25.25L271.75 25.25V25.25H273.25ZM250.25 2.25L250.25 3.75L250.25 2.25ZM2 405.25L3.5 405.25L2 405.25ZM25 428.25L25 429.75H25V428.25ZM50 0.5H25V3.5H50V0.5ZM0.5 25V50.5H3.5V25H0.5ZM25 0.5C11.469 0.5 0.5 11.469 0.5 25H3.5C3.5 13.1259 13.1259 3.5 25 3.5V0.5ZM225.25 430H250.25V427H225.25V430ZM274.75 405.5V380H271.75V405.5H274.75ZM250.25 430C263.781 430 274.75 419.031 274.75 405.5L271.75 405.5C271.75 417.374 262.124 427 250.25 427L250.25 430ZM274.75 50.25V25.25H271.75V50.25H274.75ZM250.25 0.749999L224.75 0.749998L224.75 3.75L250.25 3.75L250.25 0.749999ZM274.75 25.25C274.75 11.719 263.781 0.75 250.25 0.749999L250.25 3.75C262.124 3.75 271.75 13.3759 271.75 25.25L274.75 25.25ZM0.500006 380.25L0.500003 405.25L3.5 405.25L3.50001 380.25L0.500006 380.25ZM25 429.75H50.5V426.75H25V429.75ZM0.500003 405.25C0.500001 418.781 11.469 429.75 25 429.75L25 426.75C13.1259 426.75 3.5 417.124 3.5 405.25L0.500003 405.25Z" fill="white"/>
</svg>
