<svg width="19" height="17" viewBox="0 0 19 17" fill="none" xmlns="http://www.w3.org/2000/svg">
<path d="M3.83239 4.91475C4.58788 3.77546 5.68026 2.90051 6.95703 2.41204C8.23381 1.92358 9.63124 1.84599 10.9542 2.1901C12.2772 2.53421 13.4598 3.28285 14.3368 4.3315C15.2137 5.38015 15.7414 6.67646 15.846 8.03948C15.846 8.19926 15.846 8.36497 15.846 8.53067C15.8386 9.98949 15.345 11.4042 14.4432 12.5509C13.5414 13.6976 12.283 14.5109 10.867 14.862C9.45109 15.2131 7.95849 15.082 6.62542 14.4894C5.29236 13.8969 4.19497 12.8767 3.5069 11.5903" stroke="white" stroke-width="2" stroke-linecap="round" stroke-linejoin="round"/>
<path d="M3.83241 4.91479C2.38841 5.03907 1.41193 5.45925 1.23439 6.14575C1.05685 6.83224 1.64865 7.59567 2.74941 8.37685C4.56527 9.54725 6.56625 10.4017 8.66744 10.9039C10.7534 11.4946 12.9253 11.7228 15.0885 11.5785C16.4319 11.4424 17.3255 11.034 17.4972 10.3949C17.6688 9.75575 17.0296 8.86804 15.8224 8.05727" stroke="white" stroke-width="2" stroke-linecap="round" stroke-linejoin="round"/>
</svg>
