<svg width="17" height="17" viewBox="0 0 17 17" fill="none" xmlns="http://www.w3.org/2000/svg">
<path d="M8.48863 0.2323C6.84996 0.2323 5.24809 0.718222 3.88559 1.62862C2.52308 2.53901 1.46114 3.83299 0.83405 5.34692C0.206959 6.86086 0.0428834 8.52674 0.362572 10.1339C0.68226 11.7411 1.47135 13.2174 2.63007 14.3761C3.78878 15.5348 5.26507 16.3239 6.87225 16.6436C8.47944 16.9633 10.1453 16.7992 11.6593 16.1721C13.1732 15.545 14.4672 14.4831 15.3776 13.1206C16.288 11.7581 16.7739 10.1562 16.7739 8.51755C16.7739 6.32017 15.901 4.21278 14.3472 2.65899C12.7934 1.10521 10.686 0.2323 8.48863 0.2323ZM8.48863 12.0684C7.78634 12.0684 7.09982 11.8601 6.5159 11.47C5.93197 11.0798 5.47685 10.5252 5.20809 9.8764C4.93934 9.22757 4.86902 8.51361 5.00603 7.82482C5.14304 7.13603 5.48122 6.50333 5.97782 6.00674C6.47441 5.51015 7.1071 5.17197 7.7959 5.03496C8.48469 4.89795 9.19864 4.96827 9.84747 5.23702C10.4963 5.50577 11.0509 5.96089 11.441 6.54482C11.8312 7.12875 12.0394 7.81527 12.0394 8.51755C12.0394 9.45929 11.6653 10.3625 10.9994 11.0284C10.3335 11.6943 9.43036 12.0684 8.48863 12.0684Z" fill="white"/>
<circle cx="8.48861" cy="8.5176" r="1.77541" fill="#FF3B30"/>
</svg>
