<svg width="30" height="29" viewBox="0 0 30 29" fill="none" xmlns="http://www.w3.org/2000/svg">
<path d="M22.6156 24.3958C20.1346 26.3997 17.0095 27.3539 13.8367 27.0438C11.3319 26.8052 8.99404 25.8271 7.10945 24.2288H10.1868V22.3204H3.98438V28.5228H5.89282V25.684C8.06367 27.5209 10.7593 28.6659 13.6697 28.9284C14.123 28.9761 14.5524 28.9999 14.9818 28.9999C18.2023 28.9999 21.3035 27.9026 23.8083 25.851C28.3647 22.1772 30.1539 16.1895 28.3647 10.6073L26.5517 11.1798C28.0785 16.0464 26.5517 21.223 22.6156 24.3958Z" fill="white"/>
<path d="M24.2617 4.38102C19.2043 -0.079963 11.499 -0.390085 6.10766 3.99933C1.57511 7.67309 -0.21406 13.6131 1.52739 19.1715L3.34042 18.5989C1.83752 13.804 3.38813 8.65116 7.30043 5.50223C12 1.68535 18.7034 1.97161 23.0689 5.88392H19.9677V7.79236H26.1702V1.58992H24.2617V4.38102Z" fill="white"/>
</svg>
