<svg width="24" height="15" viewBox="0 0 24 15" fill="none" xmlns="http://www.w3.org/2000/svg">
<path d="M16.5779 10.6571V1.68657C16.5779 1.29005 16.42 0.909766 16.1388 0.629384C15.8577 0.349001 15.4763 0.191483 15.0787 0.191483H4.58408C4.09188 0.191483 3.60449 0.288162 3.14975 0.476C2.69501 0.663836 2.28183 0.939155 1.93379 1.28623C1.23088 1.98719 0.835999 2.93789 0.835999 3.92919V12.8997C0.835999 13.2962 0.993953 13.6765 1.27511 13.9569C1.55627 14.2373 1.93761 14.3948 2.33523 14.3948H12.8299C13.8239 14.3948 14.7773 14.001 15.4802 13.3C16.1831 12.5991 16.5779 11.6484 16.5779 10.6571ZM22.9497 12.4231C22.8367 12.4916 22.7071 12.5278 22.5749 12.5278C22.4427 12.5278 22.313 12.4916 22.2001 12.4231L18.452 10.2926C18.337 10.2265 18.2418 10.131 18.1759 10.0161C18.1101 9.9012 18.076 9.7709 18.0772 9.63854V4.94772C18.076 4.81536 18.1101 4.68506 18.1759 4.57014C18.2418 4.45522 18.337 4.35979 18.452 4.29362L22.2001 2.16313C22.3143 2.09778 22.4432 2.06241 22.5749 2.06034C22.7067 2.06114 22.836 2.09659 22.9497 2.16313C23.0646 2.22702 23.16 2.32064 23.226 2.43412C23.2919 2.5476 23.326 2.67672 23.3245 2.80788V11.7784C23.326 11.9095 23.2919 12.0387 23.226 12.1521C23.16 12.2656 23.0646 12.3592 22.9497 12.4231Z" fill="white"/>
</svg>
